<svg xmlns="http://www.w3.org/2000/svg" version="1.1" xmlns:xlink="http://www.w3.org/1999/xlink" xmlns:svgjs="http://svgjs.dev/svgjs" width="1500" height="886" viewBox="0 0 1500 886"><g transform="matrix(1,0,0,1,-0.9090909090909918,-0.8977559091352987)"><svg viewBox="0 0 396 234" data-background-color="#ffffff" preserveAspectRatio="xMidYMid meet" height="886" width="1500" xmlns="http://www.w3.org/2000/svg" xmlns:xlink="http://www.w3.org/1999/xlink"><g id="tight-bounds" transform="matrix(1,0,0,1,0.2400000000000091,0.2371048337896866)"><svg viewBox="0 0 395.52 233.52579033242063" height="233.52579033242063" width="395.52"><g><svg viewBox="0 0 395.52 233.52579033242063" height="233.52579033242063" width="395.52"><g><svg viewBox="0 0 395.52 233.52579033242063" height="233.52579033242063" width="395.52"><g id="textblocktransform"><svg viewBox="0 0 395.52 233.52579033242063" height="233.52579033242063" width="395.52" id="textblock"><g><svg viewBox="0 0 395.52 233.52579033242063" height="233.52579033242063" width="395.52"><g transform="matrix(1,0,0,1,0,0)"><svg width="395.52" viewBox="0.9 -36.307614213197965 62.08444444444443 36.65761421319797" height="233.52579033242063" data-palette-color="#000000"><g class="wordmark-text-0" data-fill-palette-color="primary" id="text-0"><path d="M14.65 0.35L14.65 0.35Q10.95 0.35 7.8-0.98 4.65-2.3 2.78-5.08 0.9-7.85 0.9-12.15L0.9-12.15Q0.9-15.1 2.33-16.65 3.75-18.2 6.2-18.2L6.2-18.2Q8.7-18.2 10.08-16.88 11.45-15.55 11.45-12.9L11.45-12.9Q11.45-10.5 12.33-9.63 13.2-8.75 14.45-8.75L14.45-8.75Q15.7-8.75 16.5-9.63 17.3-10.5 17.3-12.9L17.3-12.9 17.3-16.35Q17.3-18.9 17.98-20.55 18.65-22.2 19.55-23.13 20.45-24.05 21.15-24.35L21.15-24.35 20.9-25.3 8.35-25.3Q5.95-25.3 4.53-26.73 3.1-28.15 3-30.7L3-30.7Q2.95-33.2 4.45-34.75 5.95-36.3 8.35-36.3L8.35-36.3 22.75-36.3Q25.1-36.3 26.33-34.73 27.55-33.15 27.55-30.65L27.55-30.65 27.55-12.15Q27.55-7.85 25.88-5.08 24.2-2.3 21.28-0.98 18.35 0.35 14.65 0.35ZM31.15-26.75L31.15-26.75Q29.7-29.85 30.5-32.33 31.3-34.8 33.55-35.8L33.55-35.8Q35.85-36.8 38.22-35.83 40.6-34.85 41.7-31.75L41.7-31.75Q42.25-30.2 42.5-28.18 42.75-26.15 43.07-24.28 43.4-22.4 44.17-21.18 44.95-19.95 46.6-19.95L46.6-19.95Q48.25-19.95 49.05-21.18 49.85-22.4 50.17-24.28 50.5-26.15 50.72-28.18 50.95-30.2 51.5-31.75L51.5-31.75Q52.65-34.85 55-35.83 57.35-36.8 59.65-35.8L59.65-35.8Q61.9-34.8 62.7-32.33 63.5-29.85 62.05-26.75L62.05-26.75Q61.3-25.15 60.07-23.73 58.85-22.3 57.4-20.8 55.95-19.3 54.5-17.48 53.05-15.65 51.85-13.3L51.85-13.3 51.85-4.75Q51.85-2.7 50.35-1.35 48.85 0 46.6 0L46.6 0Q44.4 0 42.87-1.35 41.35-2.7 41.35-4.75L41.35-4.75 41.35-13.3Q40.2-15.65 38.75-17.48 37.3-19.3 35.85-20.8 34.4-22.3 33.15-23.73 31.9-25.15 31.15-26.75Z" fill="#000000" data-fill-palette-color="primary"></path></g></svg></g></svg></g></svg></g></svg></g></svg></g><defs></defs></svg><rect width="395.52" height="233.52579033242063" fill="none" stroke="none" visibility="hidden"></rect></g></svg></g></svg>