{
  "accessors": [
    {
      "bufferView": 2,
      "componentType": 5126,
      "count": 1555,
      "max": [
        67.6548843383789,
        -55.6807861328125,
        39.03611373901367
      ],
      "min": [
        -67.65489196777344,
        -138.62046813964844,
        -115.80574035644531
      ],
      "type": "VEC3"
    },
    {
      "bufferView": 2,
      "byteOffset": 18660,
      "componentType": 5126,
      "count": 1555,
      "max": [
        0.9978286623954773,
        0.9999903440475464,
        0.9997462034225464
      ],
      "min": [
        -0.9978286623954773,
        -0.9999926090240479,
        -0.9992556571960449
      ],
      "type": "VEC3"
    },
    {
      "bufferView": 1,
      "componentType": 5126,
      "count": 1555,
      "max": [
        0.9756280183792114,
        0.7389647960662842
      ],
      "min": [
        0.024362102150917053,
        0.18495021760463715
      ],
      "type": "VEC2"
    },
    {
      "bufferView": 0,
      "componentType": 5125,
      "count": 8700,
      "type": "SCALAR"
    },
    {
      "bufferView": 2,
      "byteOffset": 37320,
      "componentType": 5126,
      "count": 4,
      "max": [
        97.06430053710938,
        100.04037475585938,
        0.0
      ],
      "min": [
        -97.06430053710938,
        -100.04037475585938,
        0.0
      ],
      "type": "VEC3"
    },
    {
      "bufferView": 2,
      "byteOffset": 37368,
      "componentType": 5126,
      "count": 4,
      "max": [
        0.0,
        0.0,
        1.0
      ],
      "min": [
        0.0,
        0.0,
        1.0
      ],
      "type": "VEC3"
    },
    {
      "bufferView": 1,
      "byteOffset": 12440,
      "componentType": 5126,
      "count": 4,
      "max": [
        0.9759374856948853,
        0.29128003120422363
      ],
      "min": [
        0.7160314321517944,
        0.02340508997440338
      ],
      "type": "VEC2"
    },
    {
      "bufferView": 0,
      "byteOffset": 34800,
      "componentType": 5125,
      "count": 6,
      "type": "SCALAR"
    },
    {
      "bufferView": 2,
      "byteOffset": 37416,
      "componentType": 5126,
      "count": 1555,
      "max": [
        69.02131652832031,
        -54.31083297729492,
        40.33475112915039
      ],
      "min": [
        -69.02132415771484,
        -139.99046325683594,
        -117.17341613769531
      ],
      "type": "VEC3"
    },
    {
      "bufferView": 2,
      "byteOffset": 56076,
      "componentType": 5126,
      "count": 1555,
      "max": [
        0.997829020023346,
        0.999993085861206,
        0.9988682270050049
      ],
      "min": [
        -0.997829020023346,
        -0.999988317489624,
        -0.9997780919075012
      ],
      "type": "VEC3"
    },
    {
      "bufferView": 1,
      "byteOffset": 12472,
      "componentType": 5126,
      "count": 1555,
      "max": [
        0.17281129956245422,
        0.9455214738845825
      ],
      "min": [
        0.0348777174949646,
        0.8651893138885498
      ],
      "type": "VEC2"
    },
    {
      "bufferView": 0,
      "byteOffset": 34824,
      "componentType": 5125,
      "count": 8700,
      "type": "SCALAR"
    }
  ],
  "asset": {
    "extras": {
      "author": "Anna.Espenstein (https://sketchfab.com/Anna.Espenstein)",
      "license": "CC-BY-4.0 (http://creativecommons.org/licenses/by/4.0/)",
      "source": "https://sketchfab.com/3d-models/toon-cute-dog-9056df9a1df946d4af651695a4996682",
      "title": "Toon cute dog"
    },
    "generator": "Sketchfab-12.66.0",
    "version": "2.0"
  },
  "bufferViews": [
    {
      "buffer": 0,
      "byteLength": 69624,
      "name": "floatBufferViews",
      "target": 34963
    },
    {
      "buffer": 0,
      "byteLength": 24912,
      "byteOffset": 69624,
      "byteStride": 8,
      "name": "floatBufferViews",
      "target": 34962
    },
    {
      "buffer": 0,
      "byteLength": 74736,
      "byteOffset": 94536,
      "byteStride": 12,
      "name": "floatBufferViews",
      "target": 34962
    }
  ],
  "buffers": [
    {
      "byteLength": 169272,
      "uri": "scene.bin"
    }
  ],
  "extensionsUsed": [
    "KHR_materials_unlit"
  ],
  "images": [
    {
      "uri": "textures/02_-_Default_baseColor.png"
    }
  ],
  "materials": [
    {
      "extensions": {
        "KHR_materials_unlit": {}
      },
      "name": "02_-_Default",
      "pbrMetallicRoughness": {
        "baseColorTexture": {
          "index": 0
        },
        "metallicFactor": 0.0
      }
    }
  ],
  "meshes": [
    {
      "name": "dog_02 - Default_0",
      "primitives": [
        {
          "attributes": {
            "NORMAL": 1,
            "POSITION": 0,
            "TEXCOORD_0": 2
          },
          "indices": 3,
          "material": 0,
          "mode": 4
        }
      ]
    },
    {
      "name": "back_02 - Default_0",
      "primitives": [
        {
          "attributes": {
            "NORMAL": 5,
            "POSITION": 4,
            "TEXCOORD_0": 6
          },
          "indices": 7,
          "material": 0,
          "mode": 4
        }
      ]
    },
    {
      "name": "dog outline_02 - Default_0",
      "primitives": [
        {
          "attributes": {
            "NORMAL": 9,
            "POSITION": 8,
            "TEXCOORD_0": 10
          },
          "indices": 11,
          "material": 0,
          "mode": 4
        }
      ]
    }
  ],
  "nodes": [
    {
      "children": [
        1
      ],
      "matrix": [
        1.0,
        0.0,
        0.0,
        0.0,
        0.0,
        6.123232939436859e-17,
        1.0,
        0.0,
        0.0,
        -1.0,
        6.123232939436859e-17,
        0.0,
        0.0,
        -83.98356628417969,
        0.0008749986882135056,
        1.0
      ],
      "name": "Sketchfab_model"
    },
    {
      "children": [
        2
      ],
      "matrix": [
        1.0,
        0.0,
        0.0,
        0.0,
        0.0,
        -1.0,
        0.0,
        0.0,
        0.0,
        0.0,
        -1.0,
        0.0,
        0.0,
        0.0,
        0.0,
        1.0
      ],
      "name": "147566175a23440b8a21c6c777a36597.fbx"
    },
    {
      "children": [
        3,
        6,
        8
      ],
      "name": "RootNode"
    },
    {
      "children": [
        4
      ],
      "matrix": [
        1.0,
        0.0,
        0.0,
        0.0,
        -0.0,
        -4.3711388064693324e-08,
        -0.999999999999999,
        0.0,
        0.0,
        0.999999999999999,
        -4.3711388064693324e-08,
        0.0,
        -3.814697265625e-06,
        -1.8355354995946982e-06,
        41.992156982421875,
        1.0
      ],
      "name": "dog"
    },
    {
      "children": [
        5
      ],
      "matrix": [
        1.0,
        0.0,
        -0.0,
        0.0,
        0.0,
        1.0,
        0.0,
        0.0,
        0.0,
        0.0,
        1.0,
        0.0,
        3.814697265625e-06,
        97.15062713623047,
        38.38481140136719,
        1.0
      ],
      "name": "Object_4"
    },
    {
      "mesh": 0,
      "name": "dog_02 - Default_0"
    },
    {
      "children": [
        7
      ],
      "matrix": [
        1.0,
        0.0,
        0.0,
        0.0,
        0.0,
        0.9999999999999929,
        1.1920928955078042e-07,
        0.0,
        0.0,
        -1.1920928955078042e-07,
        0.9999999999999929,
        0.0,
        0.0,
        -1.190840634990309e-06,
        0.0,
        1.0
      ],
      "name": "back"
    },
    {
      "mesh": 1,
      "name": "back_02 - Default_0"
    },
    {
      "children": [
        9
      ],
      "matrix": [
        1.0,
        0.0,
        0.0,
        0.0,
        -0.0,
        -1.6292068472090193e-07,
        -0.9999999999999868,
        0.0,
        0.0,
        0.9999999999999868,
        -1.6292068472090193e-07,
        0.0,
        -3.814697265625e-06,
        -1.8355354995946982e-06,
        41.992156982421875,
        1.0
      ],
      "name": "dog outline"
    },
    {
      "children": [
        10
      ],
      "matrix": [
        1.0,
        0.0,
        -0.0,
        0.0,
        0.0,
        1.0,
        0.0,
        0.0,
        0.0,
        0.0,
        1.0,
        0.0,
        3.814697265625e-06,
        97.15062713623047,
        38.38481140136719,
        1.0
      ],
      "name": "Object_9"
    },
    {
      "mesh": 2,
      "name": "dog outline_02 - Default_0"
    }
  ],
  "samplers": [
    {
      "magFilter": 9729,
      "minFilter": 9987,
      "wrapS": 10497,
      "wrapT": 10497
    }
  ],
  "scene": 0,
  "scenes": [
    {
      "name": "Sketchfab_Scene",
      "nodes": [
        0
      ]
    }
  ],
  "textures": [
    {
      "sampler": 0,
      "source": 0
    }
  ]
}
