{
  "accessors": [
    {
      "bufferView": 2,
      "componentType": 5126,
      "count": 16766,
      "max": [
        0.49283766746520996,
        -0.6790033578872681,
        0.6041328310966492
      ],
      "min": [
        -0.20123371481895447,
        -0.8077930212020874,
        0.32063359022140503
      ],
      "type": "VEC3"
    },
    {
      "bufferView": 2,
      "byteOffset": 201192,
      "componentType": 5126,
      "count": 16766,
      "max": [
        0.9998864531517029,
        0.9998557567596436,
        0.999917209148407
      ],
      "min": [
        -0.9998853206634521,
        -0.9998540878295898,
        -0.9999168515205383
      ],
      "type": "VEC3"
    },
    {
      "bufferView": 3,
      "componentType": 5126,
      "count": 16766,
      "max": [
        0.25882354378700256,
        0.1882352977991104,
        0.10196078568696976,
        1.0
      ],
      "min": [
        0.25882354378700256,
        0.1882352977991104,
        0.10196078568696976,
        1.0
      ],
      "type": "VEC4"
    },
    {
      "bufferView": 1,
      "componentType": 5126,
      "count": 16766,
      "max": [
        1.0,
        1.0
      ],
      "min": [
        0.0,
        0.0
      ],
      "type": "VEC2"
    },
    {
      "bufferView": 0,
      "componentType": 5125,
      "count": 96768,
      "type": "SCALAR"
    },
    {
      "bufferView": 2,
      "byteOffset": 402384,
      "componentType": 5126,
      "count": 8383,
      "max": [
        0.25798946619033813,
        -0.7976135015487671,
        0.5005553960800171
      ],
      "min": [
        0.017263969406485558,
        -0.9060236811637878,
        0.3726483881473541
      ],
      "type": "VEC3"
    },
    {
      "bufferView": 2,
      "byteOffset": 502980,
      "componentType": 5126,
      "count": 8383,
      "max": [
        0.9998025894165039,
        0.9999992251396179,
        0.999951183795929
      ],
      "min": [
        -0.9997235536575317,
        -0.9995432496070862,
        -0.9997266530990601
      ],
      "type": "VEC3"
    },
    {
      "bufferView": 3,
      "byteOffset": 268256,
      "componentType": 5126,
      "count": 8383,
      "max": [
        1.0,
        0.658823549747467,
        0.25882354378700256,
        1.0
      ],
      "min": [
        0.8627451062202454,
        0.4941176474094391,
        0.05882352963089943,
        1.0
      ],
      "type": "VEC4"
    },
    {
      "bufferView": 1,
      "byteOffset": 134128,
      "componentType": 5126,
      "count": 8383,
      "max": [
        1.0,
        1.0
      ],
      "min": [
        0.0,
        0.0
      ],
      "type": "VEC2"
    },
    {
      "bufferView": 0,
      "byteOffset": 387072,
      "componentType": 5125,
      "count": 48384,
      "type": "SCALAR"
    },
    {
      "bufferView": 2,
      "byteOffset": 603576,
      "componentType": 5126,
      "count": 6414,
      "max": [
        0.3459101617336273,
        -0.3633137047290802,
        -0.9362088441848755
      ],
      "min": [
        -0.4034275710582733,
        -0.8568934202194214,
        -1.0908514261245728
      ],
      "type": "VEC3"
    },
    {
      "bufferView": 2,
      "byteOffset": 680544,
      "componentType": 5126,
      "count": 6414,
      "max": [
        0.9979841709136963,
        0.9990037083625793,
        0.9999504089355469
      ],
      "min": [
        -0.9994289875030518,
        -0.9999024868011475,
        -0.999999463558197
      ],
      "type": "VEC3"
    },
    {
      "bufferView": 3,
      "byteOffset": 402384,
      "componentType": 5126,
      "count": 6414,
      "max": [
        1.0,
        0.658823549747467,
        0.25882354378700256,
        1.0
      ],
      "min": [
        0.8470588326454163,
        0.4745098054409027,
        0.03921568766236305,
        1.0
      ],
      "type": "VEC4"
    },
    {
      "bufferView": 1,
      "byteOffset": 201192,
      "componentType": 5126,
      "count": 6414,
      "max": [
        0.9892500042915344,
        0.9550700187683105
      ],
      "min": [
        0.0019499999471008778,
        0.0019499999471008778
      ],
      "type": "VEC2"
    },
    {
      "bufferView": 0,
      "byteOffset": 580608,
      "componentType": 5125,
      "count": 18840,
      "type": "SCALAR"
    },
    {
      "bufferView": 2,
      "byteOffset": 757512,
      "componentType": 5126,
      "count": 17767,
      "max": [
        1.2595871686935425,
        0.1283685266971588,
        0.8226393461227417
      ],
      "min": [
        -1.1512320041656494,
        -0.6541352272033691,
        -0.4114622175693512
      ],
      "type": "VEC3"
    },
    {
      "bufferView": 2,
      "byteOffset": 970716,
      "componentType": 5126,
      "count": 17767,
      "max": [
        0.9998498558998108,
        0.9997052550315857,
        0.9999769330024719
      ],
      "min": [
        -0.9999242424964905,
        -0.9999728798866272,
        -0.9990612864494324
      ],
      "type": "VEC3"
    },
    {
      "bufferView": 3,
      "byteOffset": 505008,
      "componentType": 5126,
      "count": 17767,
      "max": [
        0.9882352948188782,
        0.9490196108818054,
        0.7137255072593689,
        1.0
      ],
      "min": [
        0.9882352948188782,
        0.9490196108818054,
        0.7137255072593689,
        1.0
      ],
      "type": "VEC4"
    },
    {
      "bufferView": 1,
      "byteOffset": 252504,
      "componentType": 5126,
      "count": 17767,
      "max": [
        0.9941400289535522,
        0.9257799983024597
      ],
      "min": [
        0.0019499999471008778,
        0.0019499999471008778
      ],
      "type": "VEC2"
    },
    {
      "bufferView": 0,
      "byteOffset": 655968,
      "componentType": 5125,
      "count": 57114,
      "type": "SCALAR"
    },
    {
      "bufferView": 2,
      "byteOffset": 1183920,
      "componentType": 5126,
      "count": 2466,
      "max": [
        1.4346494674682617,
        0.19391629099845886,
        1.5445668697357178
      ],
      "min": [
        0.85918790102005,
        -0.6086161136627197,
        0.5815060138702393
      ],
      "type": "VEC3"
    },
    {
      "bufferView": 2,
      "byteOffset": 1213512,
      "componentType": 5126,
      "count": 2466,
      "max": [
        0.9982013702392578,
        0.999906063079834,
        0.9986894130706787
      ],
      "min": [
        -0.9998509883880615,
        -0.9998626112937927,
        -0.9943795204162598
      ],
      "type": "VEC3"
    },
    {
      "bufferView": 3,
      "byteOffset": 789280,
      "componentType": 5126,
      "count": 2466,
      "max": [
        0.9764705896377563,
        0.9529411792755127,
        0.9647058844566345,
        1.0
      ],
      "min": [
        0.5686274766921997,
        0.2666666805744171,
        0.5372549295425415,
        1.0
      ],
      "type": "VEC4"
    },
    {
      "bufferView": 0,
      "byteOffset": 884424,
      "componentType": 5125,
      "count": 14076,
      "type": "SCALAR"
    },
    {
      "bufferView": 2,
      "byteOffset": 1243104,
      "componentType": 5126,
      "count": 41278,
      "max": [
        1.16200590133667,
        1.2465379238128662,
        1.1594653129577637
      ],
      "min": [
        -1.2286052703857422,
        -1.0943646430969238,
        -1.0963557958602905
      ],
      "type": "VEC3"
    },
    {
      "bufferView": 2,
      "byteOffset": 1738440,
      "componentType": 5126,
      "count": 41278,
      "max": [
        0.9999473094940186,
        0.9932585954666138,
        0.9998793601989746
      ],
      "min": [
        -0.9998117089271545,
        -0.9999383687973022,
        -0.9999998807907104
      ],
      "type": "VEC3"
    },
    {
      "bufferView": 3,
      "byteOffset": 828736,
      "componentType": 5126,
      "count": 41278,
      "max": [
        0.9882352948188782,
        0.9490196108818054,
        0.7137255072593689,
        1.0
      ],
      "min": [
        0.8627451062202454,
        0.6705882549285889,
        0.30588236451148987,
        1.0
      ],
      "type": "VEC4"
    },
    {
      "bufferView": 1,
      "byteOffset": 394640,
      "componentType": 5126,
      "count": 41278,
      "max": [
        0.9941400289535522,
        0.7890599966049194
      ],
      "min": [
        0.0019499999471008778,
        0.0019499999471008778
      ],
      "type": "VEC2"
    },
    {
      "bufferView": 0,
      "byteOffset": 940728,
      "componentType": 5125,
      "count": 135222,
      "type": "SCALAR"
    }
  ],
  "asset": {
    "extras": {
      "author": "4licia (https://sketchfab.com/4licia)",
      "license": "CC-BY-4.0 (http://creativecommons.org/licenses/by/4.0/)",
      "source": "https://sketchfab.com/3d-models/little-chick-3-d76b6552fafa4fe781f662080a092067",
      "title": "Little Chick <3"
    },
    "generator": "Sketchfab-13.83.0",
    "version": "2.0"
  },
  "bufferViews": [
    {
      "buffer": 0,
      "byteLength": 1481616,
      "name": "floatBufferViews",
      "target": 34963
    },
    {
      "buffer": 0,
      "byteLength": 724864,
      "byteOffset": 1481616,
      "byteStride": 8,
      "name": "floatBufferViews",
      "target": 34962
    },
    {
      "buffer": 0,
      "byteLength": 2233776,
      "byteOffset": 2206480,
      "byteStride": 12,
      "name": "floatBufferViews",
      "target": 34962
    },
    {
      "buffer": 0,
      "byteLength": 1489184,
      "byteOffset": 4440256,
      "byteStride": 16,
      "name": "floatBufferViews",
      "target": 34962
    }
  ],
  "buffers": [
    {
      "byteLength": 5929440,
      "uri": "scene.bin"
    }
  ],
  "extensionsRequired": [
    "KHR_materials_pbrSpecularGlossiness"
  ],
  "extensionsUsed": [
    "KHR_materials_pbrSpecularGlossiness"
  ],
  "materials": [
    {
      "doubleSided": true,
      "extensions": {
        "KHR_materials_pbrSpecularGlossiness": {
          "diffuseFactor": [
            0.8,
            0.8,
            0.8,
            1.0
          ],
          "glossinessFactor": 0.3792561298971917,
          "specularFactor": [
            0.1655418210866517,
            0.1655418210866517,
            0.1655418210866517
          ]
        }
      },
      "name": "defaultMat"
    },
    {
      "doubleSided": true,
      "extensions": {
        "KHR_materials_pbrSpecularGlossiness": {
          "diffuseFactor": [
            1.0,
            1.0,
            1.0,
            1.0
          ],
          "glossinessFactor": 0.9363506240873436,
          "specularFactor": [
            0.3233451980789193,
            0.3233451980789193,
            0.3233451980789193
          ]
        }
      },
      "name": "material_0"
    },
    {
      "doubleSided": true,
      "extensions": {
        "KHR_materials_pbrSpecularGlossiness": {
          "diffuseFactor": [
            0.8,
            0.8,
            0.8,
            1.0
          ],
          "glossinessFactor": 0.379,
          "specularFactor": [
            0.166,
            0.166,
            0.166
          ]
        }
      },
      "name": "defaultMat_0"
    },
    {
      "doubleSided": true,
      "extensions": {
        "KHR_materials_pbrSpecularGlossiness": {
          "diffuseFactor": [
            0.8,
            0.8,
            0.8,
            1.0
          ],
          "glossinessFactor": 0.694,
          "specularFactor": [
            0.13519501781890791,
            0.13519501781890791,
            0.13519501781890791
          ]
        }
      },
      "name": "defaultMat_1"
    },
    {
      "doubleSided": true,
      "extensions": {
        "KHR_materials_pbrSpecularGlossiness": {
          "diffuseFactor": [
            0.8,
            0.8,
            0.8,
            1.0
          ],
          "glossinessFactor": 0.6935761979453934,
          "specularFactor": [
            0.256582230889883,
            0.256582230889883,
            0.256582230889883
          ]
        }
      },
      "name": "defaultMat_2"
    },
    {
      "doubleSided": true,
      "extensions": {
        "KHR_materials_pbrSpecularGlossiness": {
          "diffuseFactor": [
            0.8,
            0.8,
            0.8,
            1.0
          ],
          "glossinessFactor": 0.6935761979453934,
          "specularFactor": [
            0.15947246043310292,
            0.15947246043310292,
            0.15947246043310292
          ]
        }
      },
      "name": "defaultMat_3"
    }
  ],
  "meshes": [
    {
      "name": "Object_0",
      "primitives": [
        {
          "attributes": {
            "COLOR_0": 2,
            "NORMAL": 1,
            "POSITION": 0,
            "TEXCOORD_0": 3
          },
          "indices": 4,
          "material": 5,
          "mode": 4
        }
      ]
    },
    {
      "name": "Object_1",
      "primitives": [
        {
          "attributes": {
            "COLOR_0": 7,
            "NORMAL": 6,
            "POSITION": 5,
            "TEXCOORD_0": 8
          },
          "indices": 9,
          "material": 4,
          "mode": 4
        }
      ]
    },
    {
      "name": "Object_2",
      "primitives": [
        {
          "attributes": {
            "COLOR_0": 12,
            "NORMAL": 11,
            "POSITION": 10,
            "TEXCOORD_0": 13
          },
          "indices": 14,
          "material": 3,
          "mode": 4
        }
      ]
    },
    {
      "name": "Object_3",
      "primitives": [
        {
          "attributes": {
            "COLOR_0": 17,
            "NORMAL": 16,
            "POSITION": 15,
            "TEXCOORD_0": 18
          },
          "indices": 19,
          "material": 2,
          "mode": 4
        }
      ]
    },
    {
      "name": "Object_4",
      "primitives": [
        {
          "attributes": {
            "COLOR_0": 22,
            "NORMAL": 21,
            "POSITION": 20
          },
          "indices": 23,
          "material": 1,
          "mode": 4
        }
      ]
    },
    {
      "name": "Object_5",
      "primitives": [
        {
          "attributes": {
            "COLOR_0": 26,
            "NORMAL": 25,
            "POSITION": 24,
            "TEXCOORD_0": 27
          },
          "indices": 28,
          "material": 0,
          "mode": 4
        }
      ]
    }
  ],
  "nodes": [
    {
      "children": [
        1
      ],
      "matrix": [
        1.0,
        -2.832769343193998e-16,
        -3.8285688045569407e-16,
        0.0,
        -3.82856880455694e-16,
        3.828568672208042e-16,
        -1.0,
        0.0,
        2.832769343193999e-16,
        1.0,
        3.828568672208042e-16,
        0.0,
        0.0,
        0.0,
        0.0,
        1.0
      ],
      "name": "Sketchfab_model"
    },
    {
      "children": [
        2,
        4,
        6,
        8,
        10,
        12
      ],
      "name": "zbrush_concat.osgb.cleaner.materialmerger.gles"
    },
    {
      "children": [
        3
      ],
      "name": "/sketchfab-data/processing/models/aed4ba0a638541c2a4f44810ff44c8dc/d76b6552fafa4fe781f662080a092067/fadd4a2d568a46cc87fd14b2e32ac8be/preprocess/SubTool-5-7794169.OBJ"
    },
    {
      "mesh": 0,
      "name": "Object_3"
    },
    {
      "children": [
        5
      ],
      "name": "/sketchfab-data/processing/models/aed4ba0a638541c2a4f44810ff44c8dc/d76b6552fafa4fe781f662080a092067/fadd4a2d568a46cc87fd14b2e32ac8be/preprocess/SubTool-4-10301617.OBJ"
    },
    {
      "mesh": 1,
      "name": "Object_5"
    },
    {
      "children": [
        7
      ],
      "name": "/sketchfab-data/processing/models/aed4ba0a638541c2a4f44810ff44c8dc/d76b6552fafa4fe781f662080a092067/fadd4a2d568a46cc87fd14b2e32ac8be/preprocess/SubTool-3-9360371.OBJ"
    },
    {
      "mesh": 2,
      "name": "Object_7"
    },
    {
      "children": [
        9
      ],
      "name": "/sketchfab-data/processing/models/aed4ba0a638541c2a4f44810ff44c8dc/d76b6552fafa4fe781f662080a092067/fadd4a2d568a46cc87fd14b2e32ac8be/preprocess/SubTool-2-13219809.OBJ"
    },
    {
      "mesh": 3,
      "name": "Object_9"
    },
    {
      "children": [
        11
      ],
      "name": "/sketchfab-data/processing/models/aed4ba0a638541c2a4f44810ff44c8dc/d76b6552fafa4fe781f662080a092067/fadd4a2d568a46cc87fd14b2e32ac8be/preprocess/SubTool-1-10233600.OBJ"
    },
    {
      "mesh": 4,
      "name": "Object_11"
    },
    {
      "children": [
        13
      ],
      "name": "/sketchfab-data/processing/models/aed4ba0a638541c2a4f44810ff44c8dc/d76b6552fafa4fe781f662080a092067/fadd4a2d568a46cc87fd14b2e32ac8be/preprocess/SubTool-0-10233600.OBJ"
    },
    {
      "mesh": 5,
      "name": "Object_13"
    }
  ],
  "scene": 0,
  "scenes": [
    {
      "name": "Sketchfab_Scene",
      "nodes": [
        0
      ]
    }
  ]
}
