{
  "accessors": [
    {
      "bufferView": 2,
      "componentType": 5126,
      "count": 474,
      "max": [
        0.07285630702972412,
        0.14542844891548157,
        0.07285632193088531
      ],
      "min": [
        -0.14536282420158386,
        -0.07285630702972412,
        -0.0040942528285086155
      ],
      "type": "VEC3"
    },
    {
      "bufferView": 2,
      "byteOffset": 5688,
      "componentType": 5126,
      "count": 474,
      "max": [
        0.9990881681442261,
        0.9999940395355225,
        0.999569296836853
      ],
      "min": [
        -0.9999940395355225,
        -0.9990789890289307,
        -0.0
      ],
      "type": "VEC3"
    },
    {
      "bufferView": 1,
      "componentType": 5126,
      "count": 474,
      "max": [
        0.8756611943244934,
        1.0
      ],
      "min": [
        0.125,
        0.0
      ],
      "type": "VEC2"
    },
    {
      "bufferView": 0,
      "componentType": 5125,
      "count": 2388,
      "type": "SCALAR"
    },
    {
      "bufferView": 2,
      "byteOffset": 11376,
      "componentType": 5126,
      "count": 3353,
      "max": [
        0.253203421831131,
        0.17312023043632507,
        0.05973104387521744
      ],
      "min": [
        -0.253203421831131,
        -0.24154974520206451,
        -0.05973104387521744
      ],
      "type": "VEC3"
    },
    {
      "bufferView": 2,
      "byteOffset": 51612,
      "componentType": 5126,
      "count": 3353,
      "max": [
        0.9995179772377014,
        0.9997620582580566,
        1.0
      ],
      "min": [
        -0.9995179772377014,
        -0.9995178580284119,
        -1.0
      ],
      "type": "VEC3"
    },
    {
      "bufferView": 1,
      "byteOffset": 3792,
      "componentType": 5126,
      "count": 3353,
      "max": [
        0.875,
        1.0
      ],
      "min": [
        0.125,
        0.0
      ],
      "type": "VEC2"
    },
    {
      "bufferView": 0,
      "byteOffset": 9552,
      "componentType": 5125,
      "count": 18276,
      "type": "SCALAR"
    }
  ],
  "asset": {
    "extras": {
      "author": "i.deal3d (https://sketchfab.com/i.deal3d)",
      "license": "CC-BY-4.0 (http://creativecommons.org/licenses/by/4.0/)",
      "source": "https://sketchfab.com/3d-models/emoji-heart-message-4bc8a62a1a1942b3a9ad74e60cf575d5",
      "title": "Emoji heart message"
    },
    "generator": "Sketchfab-12.68.0",
    "version": "2.0"
  },
  "bufferViews": [
    {
      "buffer": 0,
      "byteLength": 82656,
      "name": "floatBufferViews",
      "target": 34963
    },
    {
      "buffer": 0,
      "byteLength": 30616,
      "byteOffset": 82656,
      "byteStride": 8,
      "name": "floatBufferViews",
      "target": 34962
    },
    {
      "buffer": 0,
      "byteLength": 91848,
      "byteOffset": 113272,
      "byteStride": 12,
      "name": "floatBufferViews",
      "target": 34962
    }
  ],
  "buffers": [
    {
      "byteLength": 205120,
      "uri": "scene.bin"
    }
  ],
  "materials": [
    {
      "doubleSided": true,
      "name": "Material.016",
      "pbrMetallicRoughness": {
        "baseColorFactor": [
          0.8,
          0.00167435,
          0.0,
          1.0
        ],
        "metallicFactor": 0.0
      }
    },
    {
      "doubleSided": true,
      "name": "Material",
      "pbrMetallicRoughness": {
        "metallicFactor": 0.0
      }
    }
  ],
  "meshes": [
    {
      "name": "Object_0",
      "primitives": [
        {
          "attributes": {
            "NORMAL": 1,
            "POSITION": 0,
            "TEXCOORD_0": 2
          },
          "indices": 3,
          "material": 0,
          "mode": 4
        }
      ]
    },
    {
      "name": "Object_1",
      "primitives": [
        {
          "attributes": {
            "NORMAL": 5,
            "POSITION": 4,
            "TEXCOORD_0": 6
          },
          "indices": 7,
          "material": 1,
          "mode": 4
        }
      ]
    }
  ],
  "nodes": [
    {
      "children": [
        1
      ],
      "matrix": [
        1.0,
        0.0,
        0.0,
        0.0,
        0.0,
        2.220446049250313e-16,
        -1.0,
        0.0,
        0.0,
        1.0,
        2.220446049250313e-16,
        0.0,
        0.0,
        0.0,
        0.0,
        1.0
      ],
      "name": "Sketchfab_model"
    },
    {
      "children": [
        2
      ],
      "name": "root"
    },
    {
      "children": [
        3,
        5
      ],
      "matrix": [
        1.0,
        0.0,
        0.0,
        0.0,
        0.0,
        2.220446049250313e-16,
        1.0,
        0.0,
        0.0,
        -1.0,
        2.220446049250313e-16,
        0.0,
        0.0,
        0.0,
        0.0,
        1.0
      ],
      "name": "GLTF_SceneRootNode"
    },
    {
      "children": [
        4
      ],
      "matrix": [
        0.7135373354804111,
        -0.7006172070935136,
        0.0,
        0.0,
        0.7006172070935136,
        0.7135373354804111,
        0.0,
        0.0,
        0.0,
        0.0,
        1.0,
        0.0,
        0.003041207790374756,
        0.6945363879203796,
        0.0693538635969162,
        1.0
      ],
      "name": "Cube.018_58"
    },
    {
      "mesh": 0,
      "name": "Object_4"
    },
    {
      "children": [
        6
      ],
      "matrix": [
        1.0,
        0.0,
        0.0,
        0.0,
        0.0,
        1.0,
        0.0,
        0.0,
        0.0,
        0.0,
        1.0,
        0.0,
        0.0032265782356262207,
        0.7200317978858948,
        0.022822419181466103,
        1.0
      ],
      "name": "Cube.003_59"
    },
    {
      "mesh": 1,
      "name": "Object_6"
    }
  ],
  "scene": 0,
  "scenes": [
    {
      "name": "Sketchfab_Scene",
      "nodes": [
        0
      ]
    }
  ]
}
