{
  "accessors": [
    {
      "bufferView": 2,
      "componentType": 5126,
      "count": 16766,
      "max": [
        0.49283766746520996,
        -0.6790033578872681,
        0.6041328310966492
      ],
      "min": [
        -0.20123371481895447,
        -0.8077930212020874,
        0.32063359022140503
      ],
      "type": "VEC3"
    },
    {
      "bufferView": 2,
      "byteOffset": 201192,
      "componentType": 5126,
      "count": 16766,
      "max": [
        0.9998864531517029,
        0.9998557567596436,
        0.999917209148407
      ],
      "min": [
        -0.9998853206634521,
        -0.9998540878295898,
        -0.9999168515205383
      ],
      "type": "VEC3"
    },
    {
      "bufferView": 3,
      "componentType": 5126,
      "count": 16766,
      "max": [
        0.25882354378700256,
        0.1882352977991104,
        0.10196078568696976,
        1.0
      ],
      "min": [
        0.25882354378700256,
        0.1882352977991104,
        0.10196078568696976,
        1.0
      ],
      "type": "VEC4"
    },
    {
      "bufferView": 1,
      "componentType": 5126,
      "count": 16766,
      "max": [
        1.0,
        1.0
      ],
      "min": [
        0.0,
        0.0
      ],
      "type": "VEC2"
    },
    {
      "bufferView": 0,
      "componentType": 5125,
      "count": 96768,
      "type": "SCALAR"
    },
    {
      "bufferView": 2,
      "byteOffset": 402384,
      "componentType": 5126,
      "count": 8383,
      "max": [
        0.25798946619033813,
        -0.7976135015487671,
        0.5005553960800171
      ],
      "min": [
        0.017263969406485558,
        -0.9060236811637878,
        0.3726483881473541
      ],
      "type": "VEC3"
    },
    {
      "bufferView": 2,
      "byteOffset": 502980,
      "componentType": 5126,
      "count": 8383,
      "max": [
        0.9998025894165039,
        0.9999992251396179,
        0.999951183795929
      ],
      "min": [
        -0.9997235536575317,
        -0.9995432496070862,
        -0.9997266530990601
      ],
      "type": "VEC3"
    },
    {
      "bufferView": 3,
      "byteOffset": 268256,
      "componentType": 5126,
      "count": 8383,
      "max": [
        1.0,
        0.658823549747467,
        0.25882354378700256,
        1.0
      ],
      "min": [
        0.8627451062202454,
        0.4941176474094391,
        0.05882352963089943,
        1.0
      ],
      "type": "VEC4"
    },
    {
      "bufferView": 1,
      "byteOffset": 134128,
      "componentType": 5126,
      "count": 8383,
      "max": [
        1.0,
        1.0
      ],
      "min": [
        0.0,
        0.0
      ],
      "type": "VEC2"
    },
    {
      "bufferView": 0,
      "byteOffset": 387072,
      "componentType": 5125,
      "count": 48384,
      "type": "SCALAR"
    },
    {
      "bufferView": 2,
      "byteOffset": 603576,
      "componentType": 5126,
      "count": 6414,
      "max": [
        0.3459101617336273,
        -0.4400748610496521,
        -0.8945485353469849
      ],
      "min": [
        -0.4034275710582733,
        -0.9336546063423157,
        -1.0491911172866821
      ],
      "type": "VEC3"
    },
    {
      "bufferView": 2,
      "byteOffset": 680544,
      "componentType": 5126,
      "count": 6414,
      "max": [
        0.9979841709136963,
        0.9990037083625793,
        0.9999504685401917
      ],
      "min": [
        -0.9994289875030518,
        -0.9999025464057922,
        -0.999999463558197
      ],
      "type": "VEC3"
    },
    {
      "bufferView": 3,
      "byteOffset": 402384,
      "componentType": 5126,
      "count": 6414,
      "max": [
        1.0,
        0.658823549747467,
        0.25882354378700256,
        1.0
      ],
      "min": [
        0.8470588326454163,
        0.4745098054409027,
        0.03921568766236305,
        1.0
      ],
      "type": "VEC4"
    },
    {
      "bufferView": 1,
      "byteOffset": 201192,
      "componentType": 5126,
      "count": 6414,
      "max": [
        0.9892500042915344,
        0.9550700187683105
      ],
      "min": [
        0.0019499999471008778,
        0.0019499999471008778
      ],
      "type": "VEC2"
    },
    {
      "bufferView": 0,
      "byteOffset": 580608,
      "componentType": 5125,
      "count": 18840,
      "type": "SCALAR"
    },
    {
      "bufferView": 2,
      "byteOffset": 757512,
      "componentType": 5126,
      "count": 17767,
      "max": [
        1.2595871686935425,
        0.1283685266971588,
        0.8226393461227417
      ],
      "min": [
        -1.1512320041656494,
        -0.6541352272033691,
        -0.4114622175693512
      ],
      "type": "VEC3"
    },
    {
      "bufferView": 2,
      "byteOffset": 970716,
      "componentType": 5126,
      "count": 17767,
      "max": [
        0.9998498558998108,
        0.9997052550315857,
        0.9999769330024719
      ],
      "min": [
        -0.9999242424964905,
        -0.9999728798866272,
        -0.9990612864494324
      ],
      "type": "VEC3"
    },
    {
      "bufferView": 3,
      "byteOffset": 505008,
      "componentType": 5126,
      "count": 17767,
      "max": [
        0.9882352948188782,
        0.9490196108818054,
        0.7137255072593689,
        1.0
      ],
      "min": [
        0.9882352948188782,
        0.9490196108818054,
        0.7137255072593689,
        1.0
      ],
      "type": "VEC4"
    },
    {
      "bufferView": 1,
      "byteOffset": 252504,
      "componentType": 5126,
      "count": 17767,
      "max": [
        0.9941400289535522,
        0.9257799983024597
      ],
      "min": [
        0.0019499999471008778,
        0.0019499999471008778
      ],
      "type": "VEC2"
    },
    {
      "bufferView": 0,
      "byteOffset": 655968,
      "componentType": 5125,
      "count": 57114,
      "type": "SCALAR"
    },
    {
      "bufferView": 2,
      "byteOffset": 1183920,
      "componentType": 5126,
      "count": 41278,
      "max": [
        1.186372995376587,
        1.2465379238128662,
        1.1559560298919678
      ],
      "min": [
        -1.2178245782852173,
        -1.0943646430969238,
        -1.0666606426239014
      ],
      "type": "VEC3"
    },
    {
      "bufferView": 2,
      "byteOffset": 1679256,
      "componentType": 5126,
      "count": 41278,
      "max": [
        0.9998401403427124,
        0.992771327495575,
        0.9999989867210388
      ],
      "min": [
        -0.9998853206634521,
        -0.9999337792396545,
        -0.9999988675117493
      ],
      "type": "VEC3"
    },
    {
      "bufferView": 3,
      "byteOffset": 789280,
      "componentType": 5126,
      "count": 41278,
      "max": [
        0.9882352948188782,
        0.9490196108818054,
        0.7137255072593689,
        1.0
      ],
      "min": [
        0.8627451062202454,
        0.6705882549285889,
        0.30588236451148987,
        1.0
      ],
      "type": "VEC4"
    },
    {
      "bufferView": 1,
      "byteOffset": 394640,
      "componentType": 5126,
      "count": 41278,
      "max": [
        0.9941400289535522,
        0.7890599966049194
      ],
      "min": [
        0.0019499999471008778,
        0.0019499999471008778
      ],
      "type": "VEC2"
    },
    {
      "bufferView": 0,
      "byteOffset": 884424,
      "componentType": 5125,
      "count": 135222,
      "type": "SCALAR"
    }
  ],
  "asset": {
    "extras": {
      "author": "4licia (https://sketchfab.com/4licia)",
      "license": "CC-BY-4.0 (http://creativecommons.org/licenses/by/4.0/)",
      "source": "https://sketchfab.com/3d-models/little-chick-7b5c08e070de4deeba8c693016c36cab",
      "title": "Little Chick"
    },
    "generator": "Sketchfab-12.68.0",
    "version": "2.0"
  },
  "bufferViews": [
    {
      "buffer": 0,
      "byteLength": 1425312,
      "name": "floatBufferViews",
      "target": 34963
    },
    {
      "buffer": 0,
      "byteLength": 724864,
      "byteOffset": 1425312,
      "byteStride": 8,
      "name": "floatBufferViews",
      "target": 34962
    },
    {
      "buffer": 0,
      "byteLength": 2174592,
      "byteOffset": 2150176,
      "byteStride": 12,
      "name": "floatBufferViews",
      "target": 34962
    },
    {
      "buffer": 0,
      "byteLength": 1449728,
      "byteOffset": 4324768,
      "byteStride": 16,
      "name": "floatBufferViews",
      "target": 34962
    }
  ],
  "buffers": [
    {
      "byteLength": 5774496,
      "uri": "scene.bin"
    }
  ],
  "materials": [
    {
      "doubleSided": true,
      "name": "defaultMat",
      "pbrMetallicRoughness": {
        "baseColorFactor": [
          0.8,
          0.8,
          0.8,
          1.0
        ],
        "metallicFactor": 0.0
      }
    },
    {
      "doubleSided": true,
      "name": "defaultMat_0",
      "pbrMetallicRoughness": {
        "baseColorFactor": [
          0.8,
          0.8,
          0.8,
          1.0
        ],
        "metallicFactor": 0.0
      }
    },
    {
      "doubleSided": true,
      "name": "defaultMat_1",
      "pbrMetallicRoughness": {
        "baseColorFactor": [
          0.8,
          0.8,
          0.8,
          1.0
        ],
        "metallicFactor": 0.0,
        "roughnessFactor": 0.5
      }
    },
    {
      "doubleSided": true,
      "name": "defaultMat_2",
      "pbrMetallicRoughness": {
        "baseColorFactor": [
          0.8,
          0.8,
          0.8,
          1.0
        ],
        "metallicFactor": 0.0,
        "roughnessFactor": 0.5
      }
    },
    {
      "doubleSided": true,
      "name": "defaultMat_3",
      "pbrMetallicRoughness": {
        "baseColorFactor": [
          0.8,
          0.8,
          0.8,
          1.0
        ],
        "metallicFactor": 0.0
      }
    }
  ],
  "meshes": [
    {
      "name": "Object_0",
      "primitives": [
        {
          "attributes": {
            "COLOR_0": 2,
            "NORMAL": 1,
            "POSITION": 0,
            "TEXCOORD_0": 3
          },
          "indices": 4,
          "material": 4,
          "mode": 4
        }
      ]
    },
    {
      "name": "Object_1",
      "primitives": [
        {
          "attributes": {
            "COLOR_0": 7,
            "NORMAL": 6,
            "POSITION": 5,
            "TEXCOORD_0": 8
          },
          "indices": 9,
          "material": 3,
          "mode": 4
        }
      ]
    },
    {
      "name": "Object_2",
      "primitives": [
        {
          "attributes": {
            "COLOR_0": 12,
            "NORMAL": 11,
            "POSITION": 10,
            "TEXCOORD_0": 13
          },
          "indices": 14,
          "material": 2,
          "mode": 4
        }
      ]
    },
    {
      "name": "Object_3",
      "primitives": [
        {
          "attributes": {
            "COLOR_0": 17,
            "NORMAL": 16,
            "POSITION": 15,
            "TEXCOORD_0": 18
          },
          "indices": 19,
          "material": 1,
          "mode": 4
        }
      ]
    },
    {
      "name": "Object_4",
      "primitives": [
        {
          "attributes": {
            "COLOR_0": 22,
            "NORMAL": 21,
            "POSITION": 20,
            "TEXCOORD_0": 23
          },
          "indices": 24,
          "material": 0,
          "mode": 4
        }
      ]
    }
  ],
  "nodes": [
    {
      "children": [
        1
      ],
      "matrix": [
        0.1242532804608345,
        0.0,
        0.0,
        0.0,
        0.0,
        2.758977057056511e-17,
        -0.1242532804608345,
        0.0,
        0.0,
        0.1242532804608345,
        2.758977057056511e-17,
        0.0,
        0.0,
        0.0,
        0.0,
        1.0
      ],
      "name": "Sketchfab_model"
    },
    {
      "children": [
        2,
        4,
        6,
        8,
        10
      ],
      "name": "zbrush_concat.osgb.cleaner.materialmerger.gles"
    },
    {
      "children": [
        3
      ],
      "name": "/sketchfab-data/processing/models/d4986b6a84ab411d82673008e268fec7/7b5c08e070de4deeba8c693016c36cab/f02d7f46327148eabb161257a00f3a09/preprocess/SubTool-4-7794169.OBJ"
    },
    {
      "mesh": 0,
      "name": "Object_3"
    },
    {
      "children": [
        5
      ],
      "name": "/sketchfab-data/processing/models/d4986b6a84ab411d82673008e268fec7/7b5c08e070de4deeba8c693016c36cab/f02d7f46327148eabb161257a00f3a09/preprocess/SubTool-3-10301617.OBJ"
    },
    {
      "mesh": 1,
      "name": "Object_5"
    },
    {
      "children": [
        7
      ],
      "name": "/sketchfab-data/processing/models/d4986b6a84ab411d82673008e268fec7/7b5c08e070de4deeba8c693016c36cab/f02d7f46327148eabb161257a00f3a09/preprocess/SubTool-2-9360371.OBJ"
    },
    {
      "mesh": 2,
      "name": "Object_7"
    },
    {
      "children": [
        9
      ],
      "name": "/sketchfab-data/processing/models/d4986b6a84ab411d82673008e268fec7/7b5c08e070de4deeba8c693016c36cab/f02d7f46327148eabb161257a00f3a09/preprocess/SubTool-1-13219809.OBJ"
    },
    {
      "mesh": 3,
      "name": "Object_9"
    },
    {
      "children": [
        11
      ],
      "name": "/sketchfab-data/processing/models/d4986b6a84ab411d82673008e268fec7/7b5c08e070de4deeba8c693016c36cab/f02d7f46327148eabb161257a00f3a09/preprocess/SubTool-0-10233600.OBJ"
    },
    {
      "mesh": 4,
      "name": "Object_11"
    }
  ],
  "scene": 0,
  "scenes": [
    {
      "name": "Sketchfab_Scene",
      "nodes": [
        0
      ]
    }
  ]
}
